<svg aria-hidden="true" style="position:absolute;width:0;height:0" xmlns="http://www.w3.org/2000/svg" overflow="hidden"><defs><symbol id="burgermenu" viewBox="0 0 32 32"><path d="M0 8.889V5.333h32v3.556H0zm0 8.889h32v-3.556H0v3.556zm0 8.889h32v-3.556H0v3.556z"/></symbol><symbol id="burgerclose" viewBox="0 0 32 32"><path d="M31.439 3.166L28.273 0 15.72 12.553 3.167 0 .001 3.166l12.553 12.553L.001 28.272l3.166 3.166L15.72 18.885l12.553 12.553 3.166-3.166-12.553-12.553L31.439 3.166z"/></symbol>
<symbol id="close" viewBox="0 0 32 32"><path d="M32 3.223L28.777 0 16 12.777 3.223 0 0 3.223 12.777 16 0 28.777 3.223 32 16 19.223 28.777 32 32 28.777 19.223 16 32 3.223z"/></symbol>
<symbol id="facebook" viewBox="0 0 32 32">
<path d="M29 0h-26c-1.65 0-3 1.35-3 3v26c0 1.65 1.35 3 3 3h13v-14h-4v-4h4v-2c0-3.306 2.694-6 6-6h4v4h-4c-1.1 0-2 0.9-2 2v2h6l-1 4h-5v14h9c1.65 0 3-1.35 3-3v-26c0-1.65-1.35-3-3-3z"></path>
</symbol>
<symbol id="instagram" viewBox="0 0 32 32">
<path d="M16 2.881c4.275 0 4.781 0.019 6.462 0.094 1.563 0.069 2.406 0.331 2.969 0.55 0.72 0.27 1.334 0.677 1.836 1.193l0.001 0.001c0.518 0.504 0.926 1.118 1.188 1.804l0.012 0.034c0.219 0.563 0.481 1.412 0.55 2.969 0.075 1.688 0.094 2.194 0.094 6.463s-0.019 4.781-0.094 6.463c-0.069 1.563-0.331 2.406-0.55 2.969-0.27 0.72-0.677 1.334-1.193 1.836l-0.001 0.001c-0.504 0.517-1.117 0.926-1.803 1.188l-0.034 0.012c-0.563 0.219-1.413 0.481-2.969 0.55-1.688 0.075-2.194 0.094-6.463 0.094s-4.781-0.019-6.463-0.094c-1.563-0.069-2.406-0.331-2.969-0.55-0.721-0.27-1.335-0.677-1.837-1.193l-0.001-0.001c-0.517-0.504-0.926-1.117-1.188-1.803l-0.012-0.034c-0.219-0.563-0.481-1.413-0.55-2.969-0.075-1.688-0.094-2.194-0.094-6.463s0.019-4.781 0.094-6.463c0.069-1.563 0.331-2.406 0.55-2.969 0.27-0.721 0.677-1.334 1.193-1.837l0.001-0.001c0.504-0.518 1.118-0.926 1.804-1.188l0.034-0.012c0.563-0.219 1.412-0.481 2.969-0.55 1.681-0.075 2.188-0.094 6.463-0.094zM16 0c-4.344 0-4.887 0.019-6.594 0.094-1.7 0.075-2.869 0.35-3.881 0.744-1.056 0.412-1.95 0.956-2.837 1.85-0.795 0.778-1.424 1.723-1.832 2.777l-0.018 0.054c-0.394 1.019-0.669 2.181-0.744 3.881-0.075 1.713-0.094 2.256-0.094 6.6s0.019 4.887 0.094 6.594c0.075 1.7 0.35 2.869 0.744 3.881 0.413 1.056 0.956 1.95 1.85 2.837 0.778 0.793 1.723 1.421 2.778 1.826l0.053 0.018c1.019 0.394 2.181 0.669 3.881 0.744 1.706 0.075 2.25 0.094 6.594 0.094s4.888-0.019 6.594-0.094c1.7-0.075 2.869-0.35 3.881-0.744 1.050-0.406 1.944-0.956 2.831-1.844s1.438-1.781 1.844-2.831c0.394-1.019 0.669-2.181 0.744-3.881 0.075-1.706 0.094-2.25 0.094-6.594s-0.019-4.887-0.094-6.594c-0.075-1.7-0.35-2.869-0.744-3.881-0.408-1.116-1.033-2.067-1.829-2.842l-0.002-0.002c-0.778-0.793-1.723-1.421-2.777-1.826l-0.053-0.018c-1.019-0.394-2.181-0.669-3.881-0.744-1.712-0.081-2.256-0.1-6.6-0.1z"></path>
<path d="M16 7.781c-4.537 0-8.219 3.681-8.219 8.219s3.681 8.219 8.219 8.219 8.219-3.681 8.219-8.219c-0.001-4.539-3.68-8.218-8.219-8.219h-0zM16 21.331c-2.944 0-5.332-2.387-5.332-5.332s2.387-5.332 5.332-5.332v0c2.945 0 5.331 2.387 5.331 5.332s-2.387 5.332-5.332 5.332v0zM26.462 7.456c0 1.060-0.859 1.919-1.919 1.919s-1.919-0.859-1.919-1.919v0c0-1.060 0.859-1.919 1.919-1.919s1.919 0.859 1.919 1.919v0z"></path>
</symbol>
<symbol id="pencil" viewBox="0 0 32 32">
<path d="M12 20l4-2 14-14-2-2-14 14-2 4zM9.041 27.097c-0.989-2.085-2.052-3.149-4.137-4.137l3.097-8.525 4-2.435 12-12h-6l-12 12-6 20 20-6 12-12v-6l-12 12-2.435 4z"></path>
</symbol>
<symbol id="display" viewBox="0 0 32 32">
<path d="M0 2v20h32v-20h-32zM30 20h-28v-16h28v16zM21 24h-10l-1 4-2 2h16l-2-2z"></path>
</symbol>
<symbol id="cog" viewBox="0 0 32 32">
<path d="M29.181 19.070c-1.679-2.908-0.669-6.634 2.255-8.328l-3.145-5.447c-0.898 0.527-1.943 0.829-3.058 0.829-3.361 0-6.085-2.742-6.085-6.125h-6.289c0.008 1.044-0.252 2.103-0.811 3.070-1.679 2.908-5.411 3.897-8.339 2.211l-3.144 5.447c0.905 0.515 1.689 1.268 2.246 2.234 1.676 2.903 0.672 6.623-2.241 8.319l3.145 5.447c0.895-0.522 1.935-0.82 3.044-0.82 3.35 0 6.067 2.725 6.084 6.092h6.289c-0.003-1.034 0.259-2.080 0.811-3.038 1.676-2.903 5.399-3.894 8.325-2.219l3.145-5.447c-0.899-0.515-1.678-1.266-2.232-2.226zM16 22.479c-3.578 0-6.479-2.901-6.479-6.479s2.901-6.479 6.479-6.479c3.578 0 6.479 2.901 6.479 6.479s-2.901 6.479-6.479 6.479z"></path>
</symbol>

</defs></svg>